<svg width="28" height="28" viewBox="0 0 28 28" fill="none" xmlns="http://www.w3.org/2000/svg">
<rect width="28" height="28" fill="#1E1E1E"/>
<g id="Desktop - 1">
<rect width="1920" height="1080" transform="translate(-763 -542)" fill="white"/>
<g id="Frame 55">
<rect x="-599.5" y="-11.5" width="639" height="51" rx="9.5" stroke="#D9D9D9"/>
</g>
<g id="EyeOff" opacity="0.3">
<rect width="27.5889" height="27.5889" fill="white"/>
<path id="Vector" fill-rule="evenodd" clip-rule="evenodd" d="M5.11364 3.16311C4.85348 2.91183 4.50503 2.77279 4.14334 2.77593C3.78165 2.77907 3.43567 2.92415 3.17991 3.17991C2.92415 3.43567 2.77907 3.78165 2.77593 4.14334C2.77279 4.50503 2.91183 4.85348 3.16311 5.11364L22.4754 24.4259C22.7355 24.6772 23.084 24.8162 23.4457 24.8131C23.8073 24.8099 24.1533 24.6649 24.4091 24.4091C24.6649 24.1533 24.8099 23.8073 24.8131 23.4457C24.8162 23.084 24.6772 22.7355 24.4259 22.4754L22.394 20.4434C24.5425 18.7303 26.1313 16.4153 26.9572 13.7945C25.1998 8.19809 19.9717 4.13837 13.7945 4.13837C11.6321 4.13544 9.4996 4.64305 7.57044 5.6199L5.11364 3.16311ZM10.9915 9.03955L13.0799 11.1294C13.5477 11.0052 14.0399 11.006 14.5072 11.1318C14.9746 11.2576 15.4007 11.5039 15.7429 11.8461C16.0851 12.1883 16.3314 12.6144 16.4572 13.0818C16.583 13.5491 16.5838 14.0413 16.4596 14.5091L18.5481 16.5975C19.1702 15.5437 19.4243 14.3129 19.2704 13.0988C19.1166 11.8847 18.5634 10.7563 17.6981 9.89091C16.8327 9.02556 15.7043 8.47245 14.4902 8.31858C13.2761 8.16471 12.0453 8.41744 10.9915 9.03955Z" fill="black"/>
<path id="Vector_2" d="M17.1797 23.0326L13.4497 19.3012C12.1084 19.2172 10.8439 18.6465 9.89352 17.6964C8.94312 16.7462 8.37215 15.4819 8.28776 14.1407L3.22106 9.07397C2.05572 10.4617 1.17582 12.0659 0.631836 13.7944C2.38925 19.3909 7.61873 23.4506 13.7945 23.4506C14.9629 23.4506 16.0968 23.3057 17.1797 23.0326Z" fill="black"/>
</g>
</g>
</svg>
